<?xml version="1.0" standalone="no"?>
<!DOCTYPE svg PUBLIC "-//W3C//DTD SVG 20010904//EN"
 "http://www.w3.org/TR/2001/REC-SVG-20010904/DTD/svg10.dtd">
<svg version="1.0" xmlns="http://www.w3.org/2000/svg"
 width="1280.000000pt" height="640.000000pt" viewBox="0 0 1280.000000 640.000000"
 preserveAspectRatio="xMidYMid meet">
<metadata>
Created by potrace 1.15, written by Peter Selinger 2001-2017
</metadata>
<g transform="translate(0.000000,640.000000) scale(0.100000,-0.100000)"
fill="#be9f72" stroke="none">
<path d="M6370 6315 c-251 -30 -461 -77 -692 -155 -988 -334 -1748 -1135
-1987 -2095 -26 -106 -58 -291 -67 -387 l-6 -77 -247 -125 c-937 -477 -1761
-979 -2306 -1404 -594 -464 -864 -852 -749 -1078 181 -352 1854 -182 3945 400
l276 77 111 -83 c392 -294 855 -476 1387 -544 196 -25 544 -23 750 5 528 71
1005 255 1435 554 302 210 592 507 794 812 224 338 378 726 432 1090 9 60 18
115 20 122 1 6 31 27 66 46 35 19 176 95 313 169 1350 732 2421 1500 2805
2013 106 141 162 282 147 365 -47 247 -694 297 -1757 135 -437 -67 -1070 -198
-1525 -315 -238 -62 -374 -98 -597 -161 -136 -38 -253 -69 -260 -69 -7 0 -53
34 -103 75 -205 172 -546 368 -798 460 -200 73 -415 127 -640 161 -144 22
-596 27 -747 9z m3230 -1439 c97 -36 116 -96 61 -191 -32 -56 -145 -182 -220
-244 l-48 -40 -40 122 c-22 67 -64 174 -93 237 -28 63 -54 121 -57 129 -9 21
336 10 397 -13z m-5829 -2326 c19 -52 64 -157 102 -234 37 -76 65 -141 63
-144 -3 -2 -75 -9 -161 -15 -232 -16 -371 7 -411 68 -17 25 -16 28 3 68 11 23
44 70 73 105 60 72 281 266 290 254 4 -4 22 -50 41 -102z"/>
</g>
</svg>
